<svg width="68" height="44" viewBox="0 0 68 44" fill="none" xmlns="http://www.w3.org/2000/svg">
<path d="M8.58355 18.7134H11.8256C11.8912 18.7134 11.9393 18.6507 11.9206 18.5881C11.8016 18.1907 11.522 16.9028 10.7717 15.5976C10.0093 14.271 8.97945 12.8457 7.83455 12.2191C6.32586 11.3938 5.07397 12.0964 4.42394 12.7537C3.40879 13.7803 2.76278 14.611 2.14218 16.6175C1.90009 17.4001 1.60584 18.5307 1.25408 20.14C0.638835 22.9558 -0.00182462 28.0608 0.426174 32.3779C0.58266 33.9511 1.40254 39.7521 3.7659 42.5693C5.84971 45.0531 8.27191 43.6012 9.24561 42.3439C10.8733 40.2401 12.2777 36.6563 12.6656 34.1511C12.6723 34.1044 12.6683 34.0551 12.6495 34.0124L12.3606 33.3525C12.3499 33.3285 12.3152 33.3312 12.3085 33.3565C12.1159 34.1284 10.9349 38.2748 9.68431 39.9094C8.51667 41.436 7.09492 40.816 6.30312 39.3588C5.1609 37.2562 4.23669 34.8031 3.66692 32.1259C3.42885 31.006 3.1132 29.1541 2.9206 27.2329C2.67183 24.757 2.67584 22.6171 2.7387 21.2892C2.86443 18.612 3.15065 16.3309 3.79265 14.9323C4.33299 13.7563 5.04588 13.2724 5.5247 13.255C6.23357 13.2297 7.33166 14.3563 7.85997 16.3829C8.22644 17.7921 8.37089 18.3667 8.42573 18.5854C8.44178 18.6627 8.50865 18.7134 8.58355 18.7134Z" fill="#E5E1DB"/>
<path d="M65.3544 22.8054C65.1765 24.1133 64.9183 25.0293 64.7485 25.3999C64.6977 25.5119 64.5853 25.5826 64.4609 25.5826H58.7204C58.6107 25.5826 58.5051 25.4946 58.5184 25.3866C58.584 24.8173 58.6963 24.1347 58.7819 23.6627C59.5015 19.6883 60.9326 16.9605 61.6856 15.6099C62.4935 14.1606 63.839 13.934 64.5265 15.6352C65.5416 18.1497 65.6433 20.6909 65.3544 22.8054ZM58.4649 27.0652C58.6 27.0478 65.975 27.0465 67.4529 27.0465C67.596 27.0465 67.711 26.9318 67.7124 26.7892C67.7578 19.239 64.8729 14.3179 64.2028 13.4273C63.5247 12.5261 61.374 10.5488 58.9638 13.3273C56.5537 16.1058 55.8274 21.8388 55.6749 23.4134C55.1693 28.6611 55.6508 33.1341 56.2607 35.6993C56.8305 38.0938 57.9112 41.3776 59.0869 42.7602C59.9134 43.7321 61.3258 44.5214 62.8158 43.5708C63.9152 42.8695 66.5046 40.9736 67.6803 34.3474C67.711 34.1714 67.5666 34.0141 67.3874 34.0207L65.1751 34.0941C65.0387 34.0994 64.925 34.1994 64.9036 34.3341C64.7913 35.038 64.5572 37.2059 64.0182 38.8511C63.1515 41.4976 61.8341 42.8469 60.9674 42.8469C60.3267 42.8469 59.5537 42.0043 59.0387 40.8537C58.5572 39.7777 58.1065 36.5419 57.9848 34.998C57.8617 33.4408 57.8992 30.2543 58.1988 27.3452C58.2282 27.0652 58.3138 27.0852 58.4649 27.0652Z" fill="#E5E1DB"/>
<path d="M50.7371 15.6284C50.7344 15.4284 50.7424 1.69723 50.7438 0.142658C50.7438 0.0626628 50.808 0 50.8882 0H53.2355C53.3158 0 53.38 0.0639961 53.38 0.143991V43.5933C53.38 43.7013 53.2917 43.7893 53.1834 43.7893H50.9083C50.8 43.7893 50.7117 43.7013 50.7117 43.5933V32.1207C50.6996 31.8954 50.4736 31.9487 50.4589 32.11C50.3613 33.2033 49.7781 35.8405 49.2819 37.5324C48.8526 38.9989 47.3439 42.3867 46.3006 43.1693C44.6996 44.3706 43.2859 43.4307 42.6265 42.7734C41.1446 41.2961 40.3127 38.327 39.7095 34.1232C39.335 31.5127 39.4339 26.1651 39.7843 23.3492C39.9796 21.78 40.952 16.235 43.3621 13.4578C45.7723 10.6793 47.4856 12.0499 48.8231 13.4018C49.2552 13.8392 50.1406 14.9404 50.5886 15.8937C50.6435 16.0057 50.7424 15.9057 50.7371 15.6284ZM50.7063 30.6475C50.7063 30.5421 50.6742 19.3855 50.6689 17.5683C50.6689 17.4016 50.6328 17.2349 50.5632 17.083C50.1004 16.0523 49.6965 15.583 49.0866 15.1084C48.3149 14.5084 46.8771 14.8218 45.7349 16.1977C44.7371 17.3989 43.2792 20.5721 42.7416 23.2546C42.252 25.6944 41.697 30.0155 41.6488 32.3767C41.6154 34.0299 41.6675 36.2484 41.8682 38.0603C42.0046 39.2923 42.3844 42.7134 44.059 42.6441C44.9631 42.6067 45.5958 41.2468 46.3568 38.7403C46.9025 36.9377 47.6542 32.3834 47.8 31.4821C47.8147 31.3914 47.8922 31.1928 47.9845 31.1928H50.4415C50.6502 31.2101 50.7063 31.0608 50.7063 30.6475Z" fill="#E5E1DB"/>
<path d="M17.5486 22.5174C17.7198 21.6201 18.553 15.6858 23.0216 11.7061C23.0216 11.7061 23.2302 11.6607 23.2302 11.8061C23.2302 13.2886 23.1928 19.8816 23.1928 21.3628C23.1928 21.4148 23.0269 21.5081 23.0216 21.4908C22.9708 21.3401 22.8959 20.9908 21.9676 19.9896C21.0381 18.9883 19.7835 19.1643 18.7536 20.9162C17.8388 22.4734 17.3867 26.0478 17.2971 26.8225C17.2864 26.9185 17.2811 27.0145 17.2811 27.1104V43.8153C17.2811 43.8927 17.2182 43.9553 17.1406 43.9553H14.7759C14.6984 43.9553 14.6355 43.8927 14.6355 43.8153V11.7941C14.6355 11.7181 14.6984 11.6554 14.7746 11.6554H17.0577C17.1353 11.6554 17.1968 11.7167 17.1968 11.7927C17.1981 13.042 17.2088 22.3587 17.2088 22.4187C17.2102 22.6961 17.4964 22.788 17.5486 22.5174Z" fill="#E5E1DB"/>
<path d="M25.5329 36.6171C26.0411 39.6009 26.8503 42.0541 28.1129 43.262C29.5066 44.5953 30.6876 43.706 31.2908 42.8674C31.5048 42.5701 32.2177 41.4595 32.7767 39.6396C33.1365 38.4677 34.3082 33.12 34.4713 32.832C34.6345 32.544 34.7469 32.82 34.7469 32.82V43.7113C34.7469 43.806 34.8231 43.882 34.9181 43.882H37.2694C37.3643 43.882 37.4406 43.806 37.4406 43.7113V11.7927C37.4406 11.7167 37.3791 11.6554 37.3028 11.6554H34.9528C34.8766 11.6554 34.8151 11.7167 34.8151 11.7927V31.1868C34.8151 31.2414 34.7696 31.2854 34.7148 31.2854L32.0518 31.2588C31.886 31.2574 31.7495 31.3894 31.7482 31.5547C31.7335 33.0866 31.6653 39.6929 30.8414 41.7794C29.8998 44.1633 28.9769 42.4367 28.6011 41.7794C28.1075 40.9182 27.705 39.2303 27.4896 36.2051C27.3773 34.6092 27.4147 32.4134 27.4147 32.4134L27.3599 11.7821C27.3599 11.7221 27.3117 11.6741 27.2515 11.6741H24.9069C24.8467 11.6741 24.7986 11.7221 24.7986 11.7821C24.8039 13.2446 24.8548 29.4135 24.8548 30.0468C24.8548 31.5307 25.3804 35.7185 25.5329 36.6171Z" fill="#E5E1DB"/>
</svg>
